<?xml version="1.0" encoding="UTF-8" standalone="no"?>
<!-- Created with Inkscape (http://www.inkscape.org/) -->

<svg
   width="210mm"
   height="297mm"
   viewBox="0 0 210 297"
   version="1.1"
   id="svg5"
   inkscape:version="1.1 (c4e8f9ed74, 2021-05-24)"
   sodipodi:docname="assets-inkscape.svg"
   xmlns:inkscape="http://www.inkscape.org/namespaces/inkscape"
   xmlns:sodipodi="http://sodipodi.sourceforge.net/DTD/sodipodi-0.dtd"
   xmlns="http://www.w3.org/2000/svg"
   xmlns:svg="http://www.w3.org/2000/svg">
  <sodipodi:namedview
     id="namedview7"
     pagecolor="#ffffff"
     bordercolor="#666666"
     borderopacity="1.0"
     inkscape:pageshadow="2"
     inkscape:pageopacity="0.0"
     inkscape:pagecheckerboard="0"
     inkscape:document-units="mm"
     showgrid="false"
     showborder="false"
     inkscape:snap-smooth-nodes="true"
     inkscape:zoom="0.16324881"
     inkscape:cx="76.570238"
     inkscape:cy="2061.2708"
     inkscape:window-width="1916"
     inkscape:window-height="1038"
     inkscape:window-x="0"
     inkscape:window-y="38"
     inkscape:window-maximized="1"
     inkscape:current-layer="layer1" />
  <defs
     id="defs2">
    <filter
       inkscape:collect="always"
       style="color-interpolation-filters:sRGB"
       id="filter31896"
       x="-0.34102264"
       y="-0.48706265"
       width="1.6820453"
       height="1.9741253">
      <feGaussianBlur
         inkscape:collect="always"
         stdDeviation="17.250136"
         id="feGaussianBlur31898" />
    </filter>
    <filter
       inkscape:collect="always"
       style="color-interpolation-filters:sRGB"
       id="filter42851"
       x="-0.15485662"
       y="-0.64599877"
       width="1.3097132"
       height="2.2919975">
      <feGaussianBlur
         inkscape:collect="always"
         stdDeviation="47.919702"
         id="feGaussianBlur42853" />
    </filter>
  </defs>
  <g
     inkscape:label="fg"
     inkscape:groupmode="layer"
     id="layer1">
    <g
       id="g32525">
      <rect
         style="fill:#000000;fill-opacity:1;fill-rule:evenodd;stroke:#ffffff;stroke-width:0.398106;stroke-linecap:round;paint-order:stroke markers fill"
         id="rect846"
         width="743.95483"
         height="178.33832"
         x="-276.41498"
         y="-18.093126"
         ry="21.342875" />
      <g
         id="g13510"
         transform="translate(-39.8938,-0.85873208)">
        <g
           id="g5"
           transform="matrix(1.1891412,0,0,1.1891412,-192.23336,20.537549)">
          <path
             class="st0"
             d="m 123.78203,17.159813 c -1.4,-5.2 -5.5,-9.2999998 -10.7,-10.6999998 -9.5,-2.5999999 -47.500006,-2.5999999 -47.500006,-2.5999999 0,0 -38,0 -47.5,2.4999999 -5.1,1.4 -9.3000004,5.5999998 -10.7000004,10.7999998 -2.4999999,9.5 -2.4999999,29.2 -2.4999999,29.2 0,0 0,19.8 2.4999999,29.2 1.4,5.2 5.5000004,9.3 10.7000004,10.7 9.6,2.6 47.5,2.6 47.5,2.6 0,0 38.000006,0 47.500006,-2.5 5.2,-1.4 9.3,-5.5 10.7,-10.7 2.5,-9.5 2.5,-29.2 2.5,-29.2 0,0 0.1,-19.8 -2.5,-29.3 z"
             id="path31894"
             inkscape:connector-curvature="0"
             style="opacity:0.514139;fill:#ff0000;filter:url(#filter31896)" />
          <path
             class="st0"
             d="M 118.9,13.3 C 117.5,8.1 113.4,4 108.2,2.6 98.7,0 60.7,0 60.7,0 60.7,0 22.7,0 13.2,2.5 8.1,3.9 3.9,8.1 2.5,13.3 0,22.8 0,42.5 0,42.5 0,42.5 0,62.3 2.5,71.7 3.9,76.9 8,81 13.2,82.4 22.8,85 60.7,85 60.7,85 c 0,0 38,0 47.5,-2.5 5.2,-1.4 9.3,-5.5 10.7,-10.7 2.5,-9.5 2.5,-29.2 2.5,-29.2 0,0 0.1,-19.8 -2.5,-29.3 z"
             id="path7"
             inkscape:connector-curvature="0"
             style="fill:#ff0000" />
        </g>
        <g
           id="g6071"
           transform="matrix(3.8208932,2.1892172,-2.1892172,3.8208932,-33.103369,-821.39716)">
          <path
             d="m 92.06196,180.48747 -1.653381,-10.71306 c -0.06912,-0.44792 -0.752668,-0.71422 -1.526646,-0.59478 l -3.211174,0.49556 c -0.773983,0.11949 -1.345525,0.57944 -1.276408,1.02738 l 1.583108,10.25766 a 5.683541,5.683541 0 1 0 6.084511,-0.47278 z"
             fill="#cccccc"
             id="path45022"
             style="fill:#000000;fill-opacity:0.24382673;stroke-width:0.264583" />
          <path
             d="m 91.048623,180.65261 -1.653381,-10.71306 c -0.06912,-0.44792 -0.752668,-0.71422 -1.526646,-0.59478 l -3.211174,0.49556 c -0.773983,0.11949 -1.345525,0.57944 -1.276408,1.02738 l 1.583108,10.25766 a 5.683541,5.683541 0 1 0 6.084511,-0.47278 z"
             fill="#cccccc"
             id="path5920"
             style="fill:#ffffff;fill-opacity:1;stroke-width:0.264583" />
          <circle
             cx="88.372803"
             cy="185.67178"
             r="2.5029609"
             fill="#ff6584"
             id="circle5922"
             style="fill:#ff0000;fill-opacity:1;stroke-width:0.264583" />
        </g>
      </g>
      <text
         xml:space="preserve"
         style="font-size:76.374px;line-height:1.25;font-family:'Andoly Cokie';-inkscape-font-specification:'Andoly Cokie';letter-spacing:0px;word-spacing:0px;stroke-width:1.36382;fill:#ffffff;fill-opacity:1"
         x="-16.253765"
         y="99.167992"
         id="text15838"><tspan
           sodipodi:role="line"
           id="tspan15836"
           style="font-style:normal;font-variant:normal;font-weight:600;font-stretch:normal;font-family:Poppins;-inkscape-font-specification:'Poppins Semi-Bold';fill:#ffffff;fill-opacity:1;stroke-width:1.36382"
           x="-16.253765"
           y="99.167992">YOUSOUND</tspan></text>
    </g>
    <g
       id="g46683"
       inkscape:export-filename="/home/mohan/Dev/monorepos/yousound/assets/logo-word-light.png"
       inkscape:export-xdpi="26.068192"
       inkscape:export-ydpi="26.068192">
      <rect
         style="mix-blend-mode:normal;fill:#e5e5e5;fill-opacity:1;fill-rule:evenodd;stroke:#ffffff;stroke-width:0.398106;stroke-linecap:round;paint-order:stroke markers fill;filter:url(#filter42851)"
         id="rect42831"
         width="743.95483"
         height="178.33832"
         x="-276.41498"
         y="338.22696"
         ry="21.342875" />
      <rect
         style="fill:#ffffff;fill-opacity:1;fill-rule:evenodd;stroke:#ffffff;stroke-width:0.398106;stroke-linecap:round;paint-order:stroke markers fill"
         id="rect32527"
         width="743.95483"
         height="178.33832"
         x="-276.41498"
         y="338.22696"
         ry="21.342875" />
      <path
         class="st0"
         d="m 123.78203,17.159813 c -1.4,-5.2 -5.5,-9.2999998 -10.7,-10.6999998 -9.5,-2.5999999 -47.500006,-2.5999999 -47.500006,-2.5999999 0,0 -38,0 -47.5,2.4999999 -5.1,1.4 -9.3000004,5.5999998 -10.7000004,10.7999998 -2.4999999,9.5 -2.4999999,29.2 -2.4999999,29.2 0,0 0,19.8 2.4999999,29.2 1.4,5.2 5.5000004,9.3 10.7000004,10.7 9.6,2.6 47.5,2.6 47.5,2.6 0,0 38.000006,0 47.500006,-2.5 5.2,-1.4 9.3,-5.5 10.7,-10.7 2.5,-9.5 2.5,-29.2 2.5,-29.2 0,0 0.1,-19.8 -2.5,-29.3 z"
         id="path32529"
         inkscape:connector-curvature="0"
         style="opacity:0.386693;fill:#000000;fill-opacity:1;filter:url(#filter31896)"
         transform="matrix(1.1891412,0,0,1.1891412,-232.12716,381.29062)" />
      <path
         class="st0"
         d="m -90.738271,391.8145 c -1.664798,-6.18354 -6.540277,-11.05902 -12.723809,-12.72381 -11.29684,-3.09177 -56.48421,-3.09177 -56.48421,-3.09177 0,0 -45.18736,0 -56.48421,2.97285 -6.06462,1.6648 -11.05901,6.65919 -12.72381,12.84273 -2.97285,11.29684 -2.97285,34.72292 -2.97285,34.72292 0,0 0,23.545 2.97285,34.72292 1.6648,6.18354 6.54028,11.05902 12.72381,12.72381 11.41576,3.09177 56.48421,3.09177 56.48421,3.09177 0,0 45.18737,0 56.48421,-2.97285 6.183532,-1.6648 11.059011,-6.54028 12.723809,-12.72381 2.972853,-11.29684 2.972853,-34.72292 2.972853,-34.72292 0,0 0.118914,-23.545 -2.972853,-34.84184 z"
         id="path32531"
         inkscape:connector-curvature="0"
         style="fill:#ff0000;stroke-width:1.18914" />
      <path
         class="st0"
         d="m -90.738271,391.8145 c -1.664798,-6.18354 -6.540277,-11.05902 -12.723809,-12.72381 -11.29684,-3.09177 -56.48421,-3.09177 -56.48421,-3.09177 0,0 -45.18736,0 -56.48421,2.97285 -6.06462,1.6648 -11.05901,6.65919 -12.72381,12.84273 -2.97285,11.29684 -2.97285,34.72292 -2.97285,34.72292 0,0 0,23.545 2.97285,34.72292 1.6648,6.18354 6.54028,11.05902 12.72381,12.72381 11.41576,3.09177 56.48421,3.09177 56.48421,3.09177 0,0 45.18737,0 56.48421,-2.97285 6.183532,-1.6648 11.059011,-6.54028 12.723809,-12.72381 2.972853,-11.29684 2.972853,-34.72292 2.972853,-34.72292 0,0 0.118914,-23.545 -2.972853,-34.84184 z"
         id="path46118"
         inkscape:connector-curvature="0"
         style="fill:#ff0000;stroke-width:1.18914" />
      <path
         class="st0"
         d="m -90.738271,391.8145 c -1.664798,-6.18354 -6.540277,-11.05902 -12.723809,-12.72381 -11.29684,-3.09177 -56.48421,-3.09177 -56.48421,-3.09177 0,0 -45.18736,0 -56.48421,2.97285 -6.06462,1.6648 -11.05901,6.65919 -12.72381,12.84273 -2.97285,11.29684 -2.97285,34.72292 -2.97285,34.72292 0,0 0,23.545 2.97285,34.72292 1.6648,6.18354 6.54028,11.05902 12.72381,12.72381 11.41576,3.09177 56.48421,3.09177 56.48421,3.09177 0,0 45.18737,0 56.48421,-2.97285 6.183532,-1.6648 11.059011,-6.54028 12.723809,-12.72381 2.972853,-11.29684 2.972853,-34.72292 2.972853,-34.72292 0,0 0.118914,-23.545 -2.972853,-34.84184 z"
         id="path46121"
         inkscape:connector-curvature="0"
         style="fill:#ff0000;stroke-width:1.18914" />
      <path
         id="path45828"
         style="fill:#000000;fill-opacity:0.24;stroke-width:4.4036"
         d="M -479.77734 1423.8477 L -532.41016 1560.6953 A 94.59467 94.59467 0 1 0 -440.63086 1604.2129 L -376.86328 1438.418 C -381.32375 1436.0457 -386.05839 1434.1236 -391.03711 1432.7832 C -407.40358 1428.304 -442.60287 1425.5511 -479.77734 1423.8477 z "
         transform="scale(0.26458333)" />
      <path
         d="m -120.59791,423.64375 17.13583,-44.55307 c 0.71649,-1.86277 -1.31228,-4.37671 -4.53105,-5.61475 l -13.35444,-5.13647 c -3.2189,-1.23786 -6.40963,-0.73167 -7.12618,1.13117 l -16.40736,42.65919 a 25.028173,25.028173 0 1 0 24.28329,11.51388 z"
         fill="#cccccc"
         id="path32535"
         style="fill:#ffffff;fill-opacity:1;stroke-width:1.16512" />
      <circle
         cx="94.187721"
         cy="449.63971"
         r="11.022097"
         fill="#ff6584"
         id="circle32537"
         style="fill:#ff0000;fill-opacity:1;stroke-width:1.16512"
         transform="rotate(29.810963)" />
      <text
         xml:space="preserve"
         style="font-size:76.374px;line-height:1.25;font-family:'Andoly Cokie';-inkscape-font-specification:'Andoly Cokie';letter-spacing:0px;word-spacing:0px;fill:#000000;fill-opacity:1;stroke-width:1.36382"
         x="-16.253765"
         y="455.4881"
         id="text32545"><tspan
           sodipodi:role="line"
           id="tspan32543"
           style="font-style:normal;font-variant:normal;font-weight:600;font-stretch:normal;font-family:Poppins;-inkscape-font-specification:'Poppins Semi-Bold';fill:#000000;fill-opacity:1;stroke-width:1.36382"
           x="-16.253765"
           y="455.4881">YOUSOUND</tspan></text>
    </g>
  </g>
  <style
     type="text/css"
     id="style3">
	.st0{fill:#FF0000;}
	.st1{fill:#FFFFFF;}
	.st2{fill:#282828;}
</style>
</svg>
